<svg width="32" height="32" viewBox="0 0 32 32" fill="none" xmlns="http://www.w3.org/2000/svg">
  <defs>
    <linearGradient id="bg" x1="0" y1="0" x2="32" y2="32" gradientUnits="userSpaceOnUse">
      <stop offset="0%" stop-color="#3B82F6"/>
      <stop offset="100%" stop-color="#1D4ED8"/>
    </linearGradient>
    <linearGradient id="accent" x1="0" y1="0" x2="32" y2="32" gradientUnits="userSpaceOnUse">
      <stop offset="0%" stop-color="#10B981"/>
      <stop offset="100%" stop-color="#059669"/>
    </linearGradient>
  </defs>

  <!-- Background rounded square -->
  <rect width="32" height="32" rx="7" fill="url(#bg)"/>

  <!-- Shield outline -->
  <path d="M16 4L24 7.5V16C24 21.3 20.5 25.8 16 28C11.5 25.8 8 21.3 8 16V7.5L16 4Z"
        fill="white" fill-opacity="0.18" stroke="white" stroke-opacity="0.5" stroke-width="1.2"/>

  <!-- S letter -->
  <path d="M12.5 12.5C12.5 11.4 13.4 10.5 14.5 10.5H17C18.1 10.5 19 11.4 19 12.5C19 13.6 18.1 14.5 17 14.5H15C13.9 14.5 13 15.4 13 16.5C13 17.6 13.9 18.5 15 18.5H17.5C18.6 18.5 19.5 17.6 19.5 16.5"
        stroke="white" stroke-width="1.8" stroke-linecap="round" fill="none"/>

  <!-- Checkmark / flow tick -->
  <path d="M11 21L13.5 23.5L21 17"
        stroke="url(#accent)" stroke-width="2" stroke-linecap="round" stroke-linejoin="round" fill="none"/>
</svg>
